HIERARCHY
ROOT Hips
{
	OFFSET 0.000000 0.000000 0.000000
	CHANNELS 6 Xposition Yposition Zposition Zrotation Yrotation Xrotation 
	JOINT LeftUpLeg_virtual
	{
		OFFSET 0.000000 0.000000 0.000000
		CHANNELS 3 Zrotation Yrotation Xrotation
		JOINT LeftUpLeg
		{
			OFFSET 10.205400 -3.823500 0.155100
			CHANNELS 3 Zrotation Yrotation Xrotation
			JOINT LeftLeg
			{
				OFFSET 0.708757 -12.982077 0.567790
				CHANNELS 3 Zrotation Yrotation Xrotation
				JOINT LeftFoot
				{
					OFFSET -0.708756 -10.717838 -2.184338
					CHANNELS 3 Zrotation Yrotation Xrotation
					JOINT LeftToeBase
					{
						OFFSET 0.108149 -7.191104 7.560241
						CHANNELS 3 Zrotation Yrotation Xrotation
						JOINT LeftToe_End
						{
							OFFSET 0.070230 0.081724 4.490308
							CHANNELS 3 Zrotation Yrotation Xrotation
							End Site
							{
								OFFSET 0.000000 0.000000 0.000000
							}
						}
					}
				}
			}
		}
	}
	JOINT RightUpLeg_virtual
	{
		OFFSET 0.000000 0.000000 0.000000
		CHANNELS 3 Zrotation Yrotation Xrotation
		JOINT RightUpLeg
		{
			OFFSET -10.205400 -3.823500 0.005500
			CHANNELS 3 Zrotation Yrotation Xrotation
			JOINT RightLeg
			{
				OFFSET -0.708756 -12.982134 0.610632
				CHANNELS 3 Zrotation Yrotation Xrotation
				JOINT RightFoot
				{
					OFFSET 0.708754 -10.717769 -1.945823
					CHANNELS 3 Zrotation Yrotation Xrotation
					JOINT RightToeBase
					{
						OFFSET -0.108140 -7.191069 7.372968
						CHANNELS 3 Zrotation Yrotation Xrotation
						JOINT RightToe_End
						{
							OFFSET -0.070227 0.081735 4.479403
							CHANNELS 3 Zrotation Yrotation Xrotation
							End Site
							{
								OFFSET 0.000000 0.000000 0.000000
							}
						}
					}
				}
			}
		}
	}
	JOINT Spine_virtual
	{
		OFFSET 0.000000 0.000000 0.000000
		CHANNELS 3 Zrotation Yrotation Xrotation
		JOINT Spine
		{
			OFFSET 0.000000 6.876099 0.125700
			CHANNELS 3 Zrotation Yrotation Xrotation
			JOINT Spine1
			{
				OFFSET 0.000000 5.730043 0.104720
				CHANNELS 3 Zrotation Yrotation Xrotation
				JOINT Spine1_split
				{
					OFFSET 0.000000 5.730043 0.104720
					CHANNELS 3 Zrotation Yrotation Xrotation
					JOINT Spine2
					{
						OFFSET 0.000000 5.730043 0.104720
						CHANNELS 3 Zrotation Yrotation Xrotation
						JOINT Neck_virtual
						{
							OFFSET 0.000000 0.000000 0.000000
							CHANNELS 3 Zrotation Yrotation Xrotation
							JOINT Neck
							{
								OFFSET 0.000000 10.314075 0.188496
								CHANNELS 3 Zrotation Yrotation Xrotation
								JOINT Head
								{
									OFFSET 0.000000 7.643700 -2.377400
									CHANNELS 3 Zrotation Yrotation Xrotation
									JOINT HeadTop_End
									{
										OFFSET 0.000000 43.788605 -13.619600
										CHANNELS 3 Zrotation Yrotation Xrotation
										End Site
										{
											OFFSET 0.000000 0.000000 0.000000
										}
									}
								}
							}
						}
						JOINT LeftShoulder_virtual
						{
							OFFSET 0.000000 0.000000 0.000000
							CHANNELS 3 Zrotation Yrotation Xrotation
							JOINT LeftShoulder
							{
								OFFSET 2.196100 4.412489 0.087492
								CHANNELS 3 Zrotation Yrotation Xrotation
								JOINT LeftShoulder_split
								{
									OFFSET 2.196100 4.412489 0.087492
									CHANNELS 3 Zrotation Yrotation Xrotation
									JOINT LeftArm
									{
										OFFSET 8.771219 -2.981674 -0.026999
										CHANNELS 3 Zrotation Yrotation Xrotation
										JOINT LeftForeArm
										{
											OFFSET 8.512804 0.000000 -0.000000
											CHANNELS 3 Zrotation Yrotation Xrotation
											JOINT LeftHand
											{
												OFFSET 18.484802 0.000000 -0.000000
												CHANNELS 3 Zrotation Yrotation Xrotation
												End Site
												{
													OFFSET 0.000000 0.000000 0.000000
												}
											}
										}
									}
								}
							}
						}
						JOINT RightShoulder_virtual
						{
							OFFSET 0.000000 0.000000 0.000000
							CHANNELS 3 Zrotation Yrotation Xrotation
							JOINT RightShoulder
							{
								OFFSET -2.196100 4.412496 0.070690
								CHANNELS 3 Zrotation Yrotation Xrotation
								JOINT RightShoulder_split
								{
									OFFSET -2.196100 4.412496 0.070690
									CHANNELS 3 Zrotation Yrotation Xrotation
									JOINT RightArm
									{
										OFFSET -8.771282 -2.981682 -0.094208
										CHANNELS 3 Zrotation Yrotation Xrotation
										JOINT RightForeArm
										{
											OFFSET -8.494598 0.000000 0.000000
											CHANNELS 3 Zrotation Yrotation Xrotation
											JOINT RightHand
											{
												OFFSET -18.483803 0.000000 0.000001
												CHANNELS 3 Zrotation Yrotation Xrotation
												End Site
												{
													OFFSET 0.000000 0.000000 0.000000
												}
											}
										}
									}
								}
							}
						}
					}
				}
			}
		}
	}
}
MOTION
Frames: 7
Frame Time: 0.033333
0.561215 26.919117 -3.311485 -0.109590 -0.051159 0.036338 4.020405 -77.653937 -2.705272 46.464004 40.264057 -15.316718 -14.740265 -15.063286 39.515694 -44.288787 20.631133 -5.825174 -2.260662 -9.053414 3.727930 0.000000 0.000000 0.000000 -1.751319 -77.859669 1.384074 -25.385446 -7.744893 -31.647036 12.622674 17.603713 52.996865 50.901309 4.901972 -26.225524 -15.854138 2.460609 4.747158 0.000000 0.000000 0.000000 -0.750297 -72.939652 2.268029 2.030283 4.286285 0.399152 -2.858417 0.353602 5.190794 0.205049 -0.846182 0.179199 0.005801 0.015835 -0.023858 -1.351512 2.028676 10.468787 5.598272 24.173452 -10.839693 -13.452759 -6.292433 18.214383 0.000000 0.000000 0.000000 -1.483852 0.053839 9.911775 -6.456663 -0.332844 4.534461 -4.239370 -7.158507 4.935752 6.782402 -18.881986 -63.485686 11.418777 -13.506101 6.410657 0.000000 0.000000 0.000000 -1.837891 -0.477839 6.617520 1.179043 16.826717 -4.704747 7.858154 -1.992207 13.144456 35.058084 66.277342 28.195209 170.886361 84.929086 -176.892747 0.000000 0.000000 0.000000 
0.574897 26.914227 -3.289518 -0.082404 -0.030277 0.032719 2.777433 -77.601242 -1.436796 47.050366 39.121275 -15.090198 -15.256092 -14.990759 40.630760 -44.276315 20.533596 -7.165621 -0.975091 -8.676005 4.114493 0.000000 0.000000 0.000000 -3.594775 -77.411493 3.153786 -25.089353 -7.785929 -32.232100 13.298677 16.721350 53.233617 51.108342 4.737587 -26.243574 -14.552896 2.246817 5.001123 0.000000 0.000000 0.000000 -0.007793 -72.953251 1.714118 2.031417 4.191285 -0.167044 -2.810237 0.212104 4.778720 0.205102 -0.732124 0.093384 -0.030412 0.014709 0.022278 -1.100947 1.748073 10.175914 5.741200 24.446176 -9.838296 -14.783902 -6.171106 18.460516 0.000000 0.000000 0.000000 -1.540087 -0.021064 9.176545 -8.277136 0.752981 4.344992 -3.787831 -6.418149 5.521376 5.708372 -20.074959 -62.597864 11.796162 -14.050755 7.322793 0.000000 0.000000 0.000000 -1.894201 -0.709426 6.168068 1.113596 16.609709 -4.828028 6.626507 -3.765090 12.905299 37.093248 65.956890 29.482139 173.025480 84.452598 -175.184134 0.000000 0.000000 0.000000 
0.531621 27.007944 -3.309427 -0.157147 -0.029621 -0.093043 2.137349 -77.888855 -0.427446 47.330875 38.888888 -14.323516 -15.046289 -14.653450 39.809662 -45.407347 21.523144 -6.878225 -1.399060 -7.027912 3.274972 0.000000 0.000000 0.000000 -3.968932 -77.377519 3.814512 -24.934861 -8.178611 -32.903620 13.406569 16.098500 53.335947 50.368305 4.841548 -25.506734 -16.134454 2.655991 5.567138 0.000000 0.000000 0.000000 0.443537 -73.443091 1.446217 1.913660 4.167443 -0.682714 -2.652094 0.017236 4.587636 0.158760 -0.647974 0.128510 -0.014231 0.007899 -0.010652 -0.710160 1.322753 9.893006 6.074529 24.518079 -8.697705 -16.910319 -4.739172 16.370888 0.000000 0.000000 0.000000 -1.484589 -0.196066 8.082580 -10.784960 1.421505 4.149878 -2.210179 -6.164262 5.861346 2.895420 -21.546807 -59.272600 11.561629 -15.723587 7.598474 0.000000 0.000000 0.000000 -1.730465 -0.913627 5.729793 1.143919 15.267308 -5.239958 5.728287 -4.351835 11.958837 40.382261 64.768348 32.748438 172.317190 85.926334 -176.474289 0.000000 0.000000 0.000000 
0.435757 27.223400 -3.308305 -0.123945 0.068918 -0.086771 2.117282 -78.382766 -0.139793 47.194527 37.870445 -13.322001 -14.183131 -14.185672 38.397940 -46.351228 22.611888 -7.499828 -2.075104 -5.972530 2.376858 0.000000 0.000000 0.000000 -3.729270 -77.694747 3.779221 -24.817209 -8.974817 -33.266641 13.277784 15.497329 52.900597 49.292072 4.801089 -24.228530 -16.414063 3.112416 6.037991 0.000000 0.000000 0.000000 0.703586 -74.142250 1.217507 1.837362 4.195557 -1.103031 -2.351390 -0.237510 4.524811 0.108536 -0.616072 0.124122 -0.026556 -0.024760 -0.037058 -0.320970 0.890623 9.603045 6.324758 24.505706 -7.552516 -19.621429 -2.362638 12.413789 0.000000 0.000000 0.000000 -1.419124 -0.427030 7.183822 -13.826197 1.329663 3.885675 -0.100370 -6.422261 6.138898 -1.219725 -23.163554 -53.908033 10.661239 -19.688403 7.290725 0.000000 0.000000 0.000000 -1.453245 -1.070877 5.447880 1.531492 13.100957 -5.688276 5.070480 -3.275163 10.808629 44.262423 62.556876 36.936710 135.053126 89.077613 145.504230 0.000000 0.000000 0.000000 
0.275756 27.557594 -3.269013 -0.097605 -0.016663 -0.093151 2.859536 -78.427449 -0.710825 46.356876 36.464905 -12.038287 -12.656358 -13.807755 35.844416 -48.037868 24.264035 -8.517791 -3.720476 -4.144130 0.739790 0.000000 0.000000 0.000000 -0.718280 -77.769756 1.482800 -25.210925 -9.731404 -33.575724 12.846309 15.323261 51.997469 48.531909 4.890044 -22.936158 -16.683606 3.339231 5.952096 0.000000 0.000000 0.000000 0.813797 -74.671630 1.032709 1.790668 4.263165 -1.300598 -1.935068 -0.528861 4.499163 0.114399 -0.592752 0.221650 -0.006878 -0.001794 -0.003929 0.014140 0.452398 9.255876 6.491717 24.279536 -6.333108 -22.464969 0.135744 7.469661 0.000000 0.000000 0.000000 -1.445335 -0.673558 6.560755 -16.549861 0.255078 3.898147 1.727019 -6.767705 7.110834 -6.303718 -24.718359 -46.591627 9.441350 -26.180568 7.132323 0.000000 0.000000 0.000000 -1.098417 -1.238157 5.377100 2.613224 10.300904 -6.107465 4.710559 -1.349149 9.537042 48.049776 59.599616 41.099690 11.022712 85.061912 20.592990 0.000000 0.000000 0.000000 
0.123950 27.948586 -3.217437 -0.201963 0.117101 0.054383 4.687125 -78.179015 -2.540683 44.800409 34.951980 -10.991508 -10.795806 -13.482253 32.712129 -49.388569 26.034917 -9.303951 -7.622083 -3.694282 -2.247809 0.000000 0.000000 0.000000 2.933899 -77.643466 -1.667875 -25.552062 -10.255722 -32.629583 11.985280 15.767381 50.149086 48.354358 4.759980 -21.757200 -17.123088 3.611451 5.509915 0.000000 0.000000 0.000000 1.763856 -74.897840 -0.063386 1.830163 4.194946 -1.007652 -1.457763 -0.943531 4.642662 0.095315 -0.703325 0.222075 -0.052348 -0.021399 -0.006253 0.221462 0.004626 8.847261 6.495816 23.865133 -5.134492 -24.890114 2.136125 2.238778 0.000000 0.000000 0.000000 -1.530122 -1.022485 6.354392 -18.570280 -1.712717 4.137138 2.925041 -6.731926 8.495178 -10.725637 -26.433081 -37.879109 7.955430 -34.868621 7.247719 0.000000 0.000000 0.000000 -0.789998 -1.451638 5.521745 4.317558 7.329151 -6.575576 4.161193 0.281347 7.882487 50.932143 56.328509 43.986808 7.441220 77.248101 16.130409 0.000000 0.000000 0.000000 
0.051856 28.346884 -3.137627 -0.117177 -0.016044 0.195774 7.035230 -77.327092 -4.901037 42.907894 34.831984 -10.651778 -8.773007 -13.350667 29.494731 -49.635821 26.947914 -8.291299 -9.086032 -4.878605 -4.816381 0.000000 0.000000 0.000000 5.663829 -76.929445 -4.316634 -25.948240 -9.910594 -30.859454 10.492940 16.402687 47.607405 48.297832 4.434930 -20.971816 -17.604620 3.830086 5.519311 0.000000 0.000000 0.000000 3.906877 -74.576746 -2.433165 1.765130 3.971247 -0.414057 -1.060723 -1.397690 4.748757 0.049136 -0.827653 0.102914 -0.008139 0.032664 -0.036124 0.346183 -0.374233 8.530750 6.283842 23.442049 -3.804054 -26.551618 3.590965 -2.366306 0.000000 0.000000 0.000000 -1.548120 -1.495223 6.579037 -18.947718 -4.449690 4.539772 2.310543 -6.210682 9.303016 -12.974793 -29.052524 -29.714950 6.062444 -45.416349 8.015330 0.000000 0.000000 0.000000 -0.343975 -1.724021 5.796973 6.413477 4.726978 -6.882532 4.182249 1.089377 6.174845 52.067847 53.481751 44.868479 5.559502 67.771603 13.484562 0.000000 0.000000 0.000000 
